<svg xmlns="http://www.w3.org/2000/svg" viewBox="0 0 64 64" fill="none">
  <defs>
    <radialGradient id="disc" cx="34%" cy="28%" r="72%">
      <stop offset="0%" stop-color="#F7FBFF"/>
      <stop offset="45%" stop-color="#D6E8F7"/>
      <stop offset="100%" stop-color="#9BC4F0"/>
    </radialGradient>
    <linearGradient id="t" x1="14" y1="12" x2="52" y2="52" gradientUnits="userSpaceOnUse">
      <stop stop-color="#0F2A5C"/>
      <stop offset=".35" stop-color="#1E4A8C"/>
      <stop offset=".7" stop-color="#2F6FED"/>
      <stop offset="1" stop-color="#7EB6E8"/>
    </linearGradient>
    <linearGradient id="r" x1="32" y1="0" x2="32" y2="64" gradientUnits="userSpaceOnUse">
      <stop stop-color="#7EB6E8"/>
      <stop offset=".45" stop-color="#2F6FED"/>
      <stop offset="1" stop-color="#1E4A8C"/>
    </linearGradient>
    <radialGradient id="g" cx="50%" cy="50%" r="50%">
      <stop offset="0%" stop-color="#2F6FED" stop-opacity=".32"/>
      <stop offset="100%" stop-color="#2F6FED" stop-opacity="0"/>
    </radialGradient>
  </defs>
  <rect width="64" height="64" rx="16" fill="#F7FAFC"/>
  <circle cx="32" cy="32" r="31.5" fill="url(#g)"/>
  <circle cx="32" cy="32" r="18.8" fill="url(#disc)"/>
  <circle cx="32" cy="32" r="18.8" stroke="#2F6FED" stroke-opacity=".22" stroke-width="1.1"/>
  <circle cx="32" cy="32" r="22.8" stroke="url(#r)" stroke-width="1.1" stroke-opacity=".55"/>
  <g stroke="url(#r)" stroke-linecap="round">
    <line x1="52.8" y1="32" x2="63.2" y2="32" stroke-width="2.35"/>
    <line x1="43.11" y1="48.64" x2="48.89" y2="57.46" stroke-width="2.35"/>
    <line x1="25.45" y1="51.64" x2="22.54" y2="60.54" stroke-width="2.35"/>
    <line x1="12.36" y1="38.55" x2="5.33" y2="41.71" stroke-width="2.35"/>
    <line x1="15.68" y1="19.68" x2="8.02" y2="12.02" stroke-width="2.35"/>
    <line x1="32" y1="11.2" x2="32" y2=".8" stroke-width="2.35"/>
  </g>
  <g>
    <circle cx="63.2" cy="32" r="1.05" fill="#2F6FED"/>
    <circle cx="48.89" cy="57.46" r="1.05" fill="#2F6FED"/>
    <circle cx="22.54" cy="60.54" r="1.05" fill="#2F6FED"/>
    <circle cx="5.33" cy="41.71" r="1.05" fill="#2F6FED"/>
    <circle cx="8.02" cy="12.02" r="1.05" fill="#2F6FED"/>
    <circle cx="32" cy=".8" r="1.05" fill="#2F6FED"/>
  </g>
  <text x="32" y="33.2" text-anchor="middle" dominant-baseline="middle" fill="url(#t)" font-family="Arial Black, Arial, sans-serif" font-weight="800" font-size="18.5" letter-spacing="-1.7">JM</text>
</svg>
